<svg xmlns="http://www.w3.org/2000/svg" viewBox="0 0 920 260">
<rect width="920" height="260" rx="24" fill="#fff8d6"/>
<g font-family="Arial, sans-serif" font-size="18" font-weight="700">
<rect x="40" y="80" width="150" height="76" rx="18" fill="#0f6cbd"/><text x="115" y="124" fill="white" text-anchor="middle">업무 상황</text>
<rect x="230" y="80" width="150" height="76" rx="18" fill="#0f7b6c"/><text x="305" y="113" fill="white" text-anchor="middle">프롬프트</text><text x="305" y="138" fill="white" text-anchor="middle">심부름 메모</text>
<rect x="420" y="80" width="150" height="76" rx="18" fill="#a65f00"/><text x="495" y="124" fill="white" text-anchor="middle">Copilot 초안</text>
<rect x="610" y="80" width="150" height="76" rx="18" fill="#c10933"/><text x="685" y="113" fill="white" text-anchor="middle">사람의 검토</text><text x="685" y="138" fill="white" text-anchor="middle">근거 확인</text>
<rect x="780" y="80" width="100" height="76" rx="18" fill="#202124"/><text x="830" y="124" fill="white" text-anchor="middle">업무 적용</text>
<path d="M195 118h30M385 118h30M575 118h30M765 118h10" stroke="#333" stroke-width="5" marker-end="url(#a)"/>
</g><defs><marker id="a" markerWidth="10" markerHeight="10" refX="6" refY="3" orient="auto"><path d="M0,0 L0,6 L7,3 z" fill="#333"/></marker></defs>
</svg>